<svg width="36" height="37" viewBox="0 0 36 37" fill="none" xmlns="http://www.w3.org/2000/svg">
<g clip-path="url(#clip0_222_288)">
<path d="M36 0.5H0V36.5H36V0.5Z" fill="#F7F7F7"/>
<path d="M5.41064 31.103L7.17403 24.8401C6.04007 22.9137 5.44303 20.7218 5.44303 18.4702C5.44303 11.5373 11.0834 5.89694 18.0163 5.89694C24.9492 5.89694 30.5894 11.5373 30.5894 18.4702C30.5894 25.4031 24.9492 31.0434 18.0163 31.0434C15.856 31.0434 13.7407 30.4904 11.8694 29.4405L5.41064 31.103ZM12.1996 27.153L12.5845 27.388C14.216 28.3841 16.0943 28.9106 18.0163 28.9106C23.7731 28.9106 28.4566 24.227 28.4566 18.4702C28.4566 12.7133 23.7731 8.02978 18.0163 8.02978C12.2594 8.02978 7.57587 12.7133 7.57587 18.4702C7.57587 20.4761 8.14597 22.424 9.22439 24.1033L9.48357 24.5069L8.46811 28.1136L12.1996 27.153Z" fill="#100C0C"/>
<path d="M14.4843 12.6182L13.6685 12.5737C13.4122 12.5598 13.1609 12.6454 12.9672 12.8136C12.5716 13.1571 11.9392 13.8211 11.745 14.6864C11.4553 15.9766 11.903 17.5565 13.0616 19.1364C14.2202 20.7163 16.3793 23.2441 20.1973 24.3237C21.4277 24.6716 22.3955 24.4371 23.1422 23.9594C23.7337 23.5811 24.1413 22.9739 24.2883 22.2874L24.4185 21.679C24.4599 21.4856 24.3617 21.2894 24.1821 21.2066L21.4248 19.9357C21.2458 19.8532 21.0336 19.9053 20.9132 20.0613L19.8307 21.4646C19.749 21.5706 19.609 21.6126 19.4826 21.5682C18.7413 21.3077 16.2582 20.2678 14.8957 17.6433C14.8366 17.5294 14.8513 17.3913 14.9351 17.2942L15.9697 16.0974C16.0753 15.9752 16.102 15.8034 16.0385 15.6549L14.85 12.8742C14.7867 12.7262 14.6449 12.627 14.4843 12.6182Z" fill="#100C0C"/>
</g>
<defs>
<clipPath id="clip0_222_288">
<rect y="0.5" width="36" height="36" rx="4" fill="#F7F7F7"/>
</clipPath>
</defs>
</svg>
