<svg width="601" height="601" viewBox="0 0 601 601" fill="none" xmlns="http://www.w3.org/2000/svg">
<mask id="mask0_252_146" style="mask-type:luminance" maskUnits="userSpaceOnUse" x="0" y="0" width="601" height="601">
<path d="M0.5 0.500061H600.5V600.5H0.5V0.500061Z" fill="white"/>
</mask>
<g mask="url(#mask0_252_146)">
<path d="M559.317 366.002L540.396 498.853H59.2972L45.0892 397.506C43.5088 386.151 49.7872 375.147 60.3808 370.742L103.079 353.023V310.557C103.079 298.046 112.24 287.438 124.619 285.638L134.716 284.16L151.674 226.814C154.836 216.102 164.669 208.772 175.82 208.772H349.292C355.892 208.772 361.935 211.317 366.442 215.502C370.948 219.702 373.919 225.541 374.402 232.125L457.004 240.847C469.266 242.149 478.779 252.114 479.51 264.421L482.846 321.723L541.216 338.214C553.361 341.637 561.088 353.52 559.317 366.002Z" fill="#DAE8EF"/>
<path d="M88.141 393.4L103.159 498.853H485.036L496.315 418.408C497.569 409.394 492.587 400.66 484.177 397.165L450.284 383.098V349.392C450.284 339.46 443.015 331.04 433.188 329.612L425.173 328.438L411.711 282.919C409.202 274.417 401.397 268.598 392.546 268.598H254.851C249.613 268.598 244.815 270.619 241.238 273.94C237.661 277.274 235.303 281.908 234.919 287.136L169.353 294.057C159.619 295.092 152.07 303.001 151.489 312.77L148.841 358.254L102.509 371.343C92.8678 374.062 86.7358 383.493 88.141 393.4Z" fill="#CCD9E2"/>
<path d="M403.187 459.559C403.187 448.192 394.864 438.555 383.618 436.921L374.447 435.578L359.039 383.481C356.167 373.75 347.234 367.09 337.105 367.09H179.513C173.518 367.09 168.028 369.403 163.934 373.205C159.839 377.02 157.141 382.324 156.702 388.306L88.4736 395.51L103.19 498.853H404.915L403.187 498.135V459.559Z" fill="#BCCED8"/>
</g>
<path d="M261.843 228.706H144.777V119.442H261.843V228.706Z" fill="#112B46"/>
<mask id="mask1_252_146" style="mask-type:luminance" maskUnits="userSpaceOnUse" x="0" y="0" width="601" height="601">
<path d="M0.5 0.500061H600.5V600.5H0.5V0.500061Z" fill="white"/>
</mask>
<g mask="url(#mask1_252_146)">
<mask id="mask2_252_146" style="mask-type:luminance" maskUnits="userSpaceOnUse" x="144" y="119" width="118" height="12">
<path d="M144.778 119.442H261.843V130.998H144.778V119.442Z" fill="white"/>
</mask>
<g mask="url(#mask2_252_146)">
<path d="M261.843 130.998H144.777V119.442H261.843V130.998Z" fill="#1D262D"/>
</g>
<path d="M236.538 125.35C236.538 126.52 235.59 127.47 234.42 127.47C233.25 127.47 232.302 126.52 232.302 125.35C232.302 124.18 233.25 123.232 234.42 123.232C235.59 123.232 236.538 124.18 236.538 125.35Z" fill="#606BF1"/>
<path d="M245.383 125.35C245.383 126.52 244.435 127.47 243.264 127.47C242.095 127.47 241.147 126.52 241.147 125.35C241.147 124.18 242.095 123.232 243.264 123.232C244.435 123.232 245.383 124.18 245.383 125.35Z" fill="#FBD15B"/>
<path d="M253.596 125.574C253.596 126.744 252.648 127.692 251.478 127.692C250.308 127.692 249.36 126.744 249.36 125.574C249.36 124.404 250.308 123.456 251.478 123.456C252.648 123.456 253.596 124.404 253.596 125.574Z" fill="#FF8578"/>
<path d="M182.174 143.133H165.595V141.74H182.174V143.133Z" fill="#FF8578"/>
<path d="M201.634 143.133H185.054V141.74H201.634V143.133Z" fill="#FBD15B"/>
<path d="M196.432 150.64H170.721V149.247H196.432V150.64Z" fill="#606BF1"/>
<path d="M213.753 150.64H200.684V149.247H213.753V150.64Z" fill="#FF8578"/>
<path d="M190.933 158.148H179.641V156.754H190.933V158.148Z" fill="#FBD15B"/>
<path d="M234.921 158.148H197.46V156.754H234.921V158.148Z" fill="#FBD15B"/>
<path d="M231.224 165.654H188.412V164.259H231.224V165.654Z" fill="#606BF1"/>
<path d="M190.884 173.161H177.708V171.766H190.884V173.161Z" fill="#FF8578"/>
<path d="M209.697 173.161H196.521V171.766H209.697V173.161Z" fill="#606BF1"/>
<path d="M184.762 210.715H165.594V212.108H184.762V210.715Z" fill="#FF8578"/>
<path d="M210.643 210.715H191.474V212.108H210.643V210.715Z" fill="#FBD15B"/>
<path d="M235.827 210.715H216.658V212.108H235.827V210.715Z" fill="#FF8578"/>
<path d="M208.183 203.208H170.721V204.601H208.183V203.208Z" fill="#606BF1"/>
<path d="M251.484 203.208H214.023V204.601H251.484V203.208Z" fill="#FF8578"/>
<path d="M216.816 195.7H179.641V197.094H216.816V195.7Z" fill="#FF8578"/>
<path d="M230.402 195.7H220.056V197.094H230.402V195.7Z" fill="#FBD15B"/>
<path d="M191.208 188.193H177.213V189.588H191.208V188.193Z" fill="#FBD15B"/>
<path d="M212.634 188.193H198.639V189.588H212.634V188.193Z" fill="#606BF1"/>
<path d="M235.628 188.193H221.634V189.588H235.628V188.193Z" fill="#FF8578"/>
<path d="M213.058 180.686H193.435V182.08H213.058V180.686Z" fill="#FBD15B"/>
<path d="M186.032 180.686H166.408V182.08H186.032V180.686Z" fill="#606BF1"/>
<path d="M383.427 155.648H287.031V96.23H383.427V155.648Z" fill="#FF8578"/>
<path d="M324.469 120.128L313 125.023L324.469 129.846L322.968 133.312L309.215 127.166V122.915L322.968 116.734L324.469 120.128Z" fill="#F9FBFC"/>
<path d="M341.371 108.803L333.047 140.779L329.082 139.85L337.443 107.911L341.371 108.803Z" fill="#F9FBFC"/>
<path d="M361.276 122.915V127.167L347.52 133.312L346.02 129.846L357.453 125.024L346.02 120.129L347.52 116.734L361.276 122.915Z" fill="#F9FBFC"/>
<path d="M435.021 250.455H380.118V211.34H435.021V250.455Z" fill="#606BF1"/>
<path d="M403.084 219.785C401.317 219.785 400.728 220.261 400.728 221.579V227.466C400.728 229.764 399.775 230.465 398.177 230.914C399.775 231.335 400.728 232.036 400.728 234.306V240.193C400.728 241.51 401.345 241.987 403.084 241.987V244.566C398.626 244.566 397.363 243.136 397.363 240.164V234.586C397.363 232.988 396.944 232.372 395.486 232.372V229.428C396.944 229.428 397.363 228.784 397.363 227.185V221.606C397.363 218.608 398.626 217.206 403.084 217.206V219.785Z" fill="#F1F2F2"/>
<path d="M417.773 221.606V227.185C417.773 228.782 418.194 229.428 419.68 229.428V232.372C418.194 232.372 417.773 232.988 417.773 234.586V240.164C417.773 243.136 416.512 244.566 412.055 244.566V241.987C413.794 241.987 414.409 241.51 414.409 240.193V234.306C414.409 232.036 415.362 231.334 416.961 230.914C415.362 230.465 414.409 229.764 414.409 227.466V221.579C414.409 220.261 413.821 219.785 412.055 219.785V217.206C416.512 217.206 417.773 218.606 417.773 221.606Z" fill="#F1F2F2"/>
<path d="M169.116 145.95H107.52V104.751H169.116V145.95Z" fill="#FBD15B"/>
<path d="M140.881 127.918C138.093 130.706 133.558 130.704 130.771 127.918C127.983 125.13 127.983 120.596 130.771 117.808C133.558 115.02 138.093 115.02 140.881 117.808C143.668 120.596 143.668 125.13 140.881 127.918ZM127.905 116.578C124.964 120.258 125.008 125.637 128.006 129.272C131.41 133.403 137.242 134.068 141.433 131.274L147.898 137.739C148.171 138.012 148.612 138.012 148.886 137.739L150.703 135.922C150.975 135.65 150.975 135.208 150.703 134.934L144.237 128.47C146.855 124.544 146.437 119.176 142.975 115.714C138.763 111.503 131.731 111.791 127.905 116.578Z" fill="#F9FBFC"/>
</g>
<path d="M341.121 215.134L323.712 224.874V232.064C322.005 231.872 320.395 231.987 318.9 232.293L318.919 232.389C318.919 232.389 316.35 247.574 331.688 247.574C346.297 247.574 348.157 233.367 348.29 232.006C344.514 231.584 341.754 231.91 341.754 231.91V215.134H341.121Z" fill="url(#paint0_radial_252_146)"/>
<path d="M303.447 193.658C301.55 203.7 303.374 223.341 312.856 230.12C315.315 231.879 328.209 230.353 330.304 228.519C333.393 225.814 336.489 223.117 339.585 220.422C340.269 219.825 340.959 219.224 341.494 218.493C342.246 217.471 342.661 216.243 343.027 215.029C345.166 207.92 346.742 200.118 345.068 192.741C344.17 188.782 342.303 185.544 339.836 183.04C335.572 178.716 330.068 176.724 324.619 176.725C314.948 176.726 305.461 183.002 303.447 193.658Z" fill="url(#paint1_radial_252_146)"/>
<mask id="mask3_252_146" style="mask-type:luminance" maskUnits="userSpaceOnUse" x="0" y="0" width="601" height="601">
<path d="M0.5 0.500061H600.5V600.5H0.5V0.500061Z" fill="white"/>
</mask>
<g mask="url(#mask3_252_146)">
<path d="M334.51 204.359C334.636 202.756 336.285 201 337.94 202.04C339.653 203.117 339.25 205.964 338.54 207.533C337.984 208.76 336.122 210.107 334.861 208.963C333.803 208.006 335.445 206.876 335.499 206.002C335.548 205.214 333.974 204.65 334.618 203.808" fill="#F7B094"/>
<path d="M334.814 211.773C336.542 212.293 339.47 210.974 340.21 208.567C340.95 206.16 340.871 203.412 340.871 203.412C340.871 203.412 341.741 205.591 341.294 209.097C340.846 212.602 339.618 215.942 336.867 215.986C334.115 216.03 334.814 211.773 334.814 211.773Z" fill="#F7B094"/>
<path d="M332.694 209.278C332.637 209.306 332.574 209.326 332.501 209.336C331.43 209.486 331.003 208.191 330.845 207.381C330.473 205.489 330.531 203.574 330.467 201.66C330.451 201.18 330.488 200.581 330.291 200.13C329.69 198.753 328.089 197.859 327.6 196.437C327.031 194.784 328.637 193.134 327.999 191.324C327.024 188.551 323.463 187.914 320.888 187.944C317.023 187.989 313.256 188.706 309.443 189.297C305.417 189.922 300.27 190.515 296.723 187.969C292.447 184.9 290.661 176.904 293.852 172.525C295.591 170.137 298.89 168.866 301.779 168.8C304.843 168.729 307.431 170.556 310.242 171.475C312.48 172.207 314.645 170.066 316.736 169.647C319.367 169.123 320.483 171.993 322.809 172.072C325.069 172.148 327.285 170.383 329.483 169.982C333.864 169.182 333.606 173.582 336.545 175.084C338.371 176.018 340.731 175.454 342.579 176.403C343.983 177.123 344.18 178.39 344.486 179.827C344.751 181.068 344.766 182.5 345.174 183.68C345.542 184.741 346.433 185.41 347.127 186.24C347.886 187.146 348.369 188.203 348.755 189.337C349.608 191.854 349.797 194.57 349.565 197.205C349.173 201.628 347.75 205.983 346.272 210.15C345.314 212.853 344.958 215.667 343.483 218.226C343.087 218.913 341.328 220.922 340.673 219.426C340.533 219.105 340.555 218.74 340.579 218.391C340.773 215.604 343.369 197.647 336.566 199.803C335.138 200.257 334.181 201.445 333.648 202.801C333.012 204.422 332.967 206.055 333.048 207.769C333.06 208.014 333.066 208.26 333.056 208.504C333.044 208.821 332.965 209.143 332.694 209.278Z" fill="#3D3D7A"/>
<path d="M323.711 230.418C331.447 229.175 336.55 223.065 336.55 223.065C336.55 223.065 334.465 233.363 323.247 233.907L323.711 230.418Z" fill="#F7B094"/>
<path d="M336.409 370.784H347.481V477.014C347.481 478.092 346.606 478.966 345.53 478.966H338.36C337.282 478.966 336.409 478.092 336.409 477.014V370.784Z" fill="#0A2033"/>
<path d="M311.499 372.303H372.39V373.965C372.39 378.149 368.997 381.542 364.813 381.542H319.075C314.892 381.542 311.499 378.149 311.499 373.965V372.303Z" fill="#30475E"/>
<path d="M336.409 466.371H347.481V490.987C347.481 492.065 346.606 492.939 345.53 492.939H338.36C337.282 492.939 336.409 492.065 336.409 490.987V466.371Z" fill="#0A2033"/>
<path d="M284.489 486.458C284.489 490.036 287.39 492.938 290.969 492.938C294.547 492.938 297.449 490.036 297.449 486.458C297.449 482.879 294.547 479.979 290.969 479.979C287.39 479.979 284.489 482.879 284.489 486.458Z" fill="#0A2033"/>
<path d="M386.441 486.458C386.441 490.036 389.341 492.938 392.919 492.938C396.499 492.938 399.401 490.036 399.401 486.458C399.401 482.879 396.499 479.979 392.919 479.979C389.341 479.979 386.441 482.879 386.441 486.458Z" fill="#0A2033"/>
<path d="M330.807 477.584H353.082V458.119H330.807V477.584Z" fill="#30475E"/>
<path d="M284.489 482.164H399.401V479.906C399.401 476.093 396.311 473.004 392.498 473.004H291.39C287.579 473.004 284.489 476.093 284.489 479.906V482.164Z" fill="#FBD15B"/>
<path d="M341.944 456.382H338.104V383.725H341.944V456.382Z" fill="#30475E"/>
<path d="M385.443 293.783C382.787 293.699 380.627 295.899 380.78 298.552C381.541 311.739 378.745 343.912 366.462 354.889C351.443 368.311 308.874 366.483 308.874 366.483C308.874 366.483 301.844 375.11 315.905 377.027C329.965 378.944 369.588 377.667 379.173 368.72C388.453 360.058 393.962 337.367 389.81 297.873C389.571 295.609 387.72 293.855 385.443 293.783Z" fill="#FBD15B"/>
</g>
<path d="M290.16 463.152L295.24 474.732L310.75 467.925L305.689 456.382L290.16 463.152Z" fill="url(#paint2_radial_252_146)"/>
<mask id="mask4_252_146" style="mask-type:luminance" maskUnits="userSpaceOnUse" x="0" y="0" width="601" height="601">
<path d="M0.5 0.500061H600.5V600.5H0.5V0.500061Z" fill="white"/>
</mask>
<g mask="url(#mask4_252_146)">
<path d="M378.833 328.099C377.874 330.016 308.958 328.137 302.449 328.731C302.449 328.731 260.269 348.864 254.21 367.71C253.597 369.608 253.424 372.12 253.616 375.111C255.304 401.646 285.52 465.183 285.52 465.183L290.159 463.152L305.689 456.382L307.895 455.424C307.895 455.424 283.928 384.007 288.721 380.173C293.514 376.338 347.831 366.752 366.677 361.652C385.543 356.532 378.833 328.099 378.833 328.099Z" fill="#56548C"/>
</g>
<path d="M230.839 476.694H247.77L246.558 459.352L229.627 459.314L230.839 476.694Z" fill="url(#paint3_radial_252_146)"/>
<mask id="mask5_252_146" style="mask-type:luminance" maskUnits="userSpaceOnUse" x="0" y="0" width="601" height="601">
<path d="M0.5 0.500061H600.5V600.5H0.5V0.500061Z" fill="white"/>
</mask>
<g mask="url(#mask5_252_146)">
<path d="M302.104 328.138L301.49 328.406C301.49 328.406 230.878 338.318 219.375 358.123C211.897 371.009 226.37 465.151 226.37 465.151L251.351 465.209C251.351 465.209 247.616 386.786 248.861 382.415C250.262 377.43 252.658 375.628 253.617 375.112C253.425 372.119 253.597 369.608 254.211 367.71C260.27 348.863 302.449 328.732 302.449 328.732C302.315 328.637 302.2 328.426 302.104 328.138Z" fill="#3D3D7A"/>
<path d="M370.307 262.893L365.572 263.545C365.572 263.545 364.421 276.314 361.603 289.083L302.609 311.477L301.803 315.752C301.555 315.733 301.305 315.715 301.076 315.695C301.094 316.577 301.094 317.439 301.132 318.245C301.267 323.172 301.592 326.719 302.11 328.137C302.206 328.425 302.321 328.637 302.456 328.731C304.058 330.038 324.923 327.506 347.481 335.789C367.043 342.972 378.009 350.819 378.515 349.765C384.664 336.983 373.471 286.82 370.307 262.893Z" fill="#FF8578"/>
<path d="M364.153 292.15C362.581 299.704 358.516 314.736 350.54 316.749C340.129 319.395 319.999 319.261 301.132 318.244C301.094 317.439 301.094 316.576 301.076 315.694C301.305 315.715 301.555 315.733 301.803 315.752L302.609 311.476L361.603 289.083C364.421 276.314 365.572 263.545 365.572 263.545C365.572 263.545 365.572 263.622 365.59 263.756C365.705 265.731 366.512 280.993 364.153 292.15Z" fill="#F4675D"/>
<path d="M305.019 244.047C303.964 245.964 302.448 266.478 301.625 286.84L289.565 275.585C294.684 265.673 305.019 244.047 305.019 244.047Z" fill="#F4675D"/>
<path d="M297.791 301.718C287.61 303.482 278.253 304.996 278.253 304.996L278.234 305.494C266.904 296.445 249.666 270.812 249.666 270.812C249.666 270.812 254.823 264.618 256.11 262.989C256.301 262.74 284.408 282.086 285.846 281.913C286.211 281.874 287.648 279.344 289.566 275.585L301.625 286.84C301.433 291.69 301.279 296.522 301.183 301.104C300.053 301.316 298.921 301.508 297.791 301.718Z" fill="#F7B094"/>
</g>
<path d="M247.328 313.394H278.004L278.253 304.996L270.181 305.802C270.181 305.802 266.979 301.411 258.679 301.411C250.376 301.411 247.328 313.394 247.328 313.394Z" fill="url(#paint4_radial_252_146)"/>
<mask id="mask6_252_146" style="mask-type:luminance" maskUnits="userSpaceOnUse" x="0" y="0" width="601" height="601">
<path d="M0.5 0.500061H600.5V600.5H0.5V0.500061Z" fill="white"/>
</mask>
<g mask="url(#mask6_252_146)">
<path d="M255.878 262.797L256.109 262.989C254.824 264.619 249.666 270.812 249.666 270.812L246.464 268.549C246.464 268.549 242.938 270.697 238.835 268.453C234.558 266.133 237.204 260.594 237.424 259.938C236.596 260.172 231.472 264.312 230.666 263.871C229.861 263.43 229.267 261.973 235.001 256.317C240.713 250.662 248.497 257.928 248.728 257.928L255.878 262.797Z" fill="#F7B094"/>
<path d="M239.502 267.491C239.502 267.491 238.266 269.806 240.463 270.812C242.66 271.817 246.934 272.543 248.772 272.367C250.608 272.19 252.068 269.62 252.068 269.62L246.506 264.401H242.06L239.502 267.491Z" fill="#F7B094"/>
<path d="M239.172 268.627C239.501 267.491 242.659 268.097 244.617 268.144C246.059 268.177 246.849 267.801 247.296 266.703C247.741 265.602 245.647 263.853 245.236 264.402C244.823 264.951 245.991 265.725 246.025 266.453C246.059 267.183 243.965 267.423 242.351 267.423C240.738 267.423 237.953 267.844 237.953 267.844L239.172 268.627Z" fill="#E8987C"/>
</g>
<path d="M321.718 297.098C318.208 298.018 309.734 299.608 301.183 301.105C300.052 301.315 298.921 301.507 297.79 301.718C287.61 303.482 278.253 304.996 278.253 304.996L278.234 305.494V305.82L278.004 313.394V315.316C278.004 315.316 288.204 314.793 301.069 315.694C319.072 316.978 342.29 317.746 349.977 314.122C353.582 312.416 356.458 306.818 358.72 299.916C358.682 299.935 358.644 299.954 358.606 299.973L328.562 289.333C326.376 293.416 324.037 296.485 321.718 297.098Z" fill="url(#paint5_radial_252_146)"/>
<mask id="mask7_252_146" style="mask-type:luminance" maskUnits="userSpaceOnUse" x="0" y="0" width="601" height="601">
<path d="M0.5 0.500061H600.5V600.5H0.5V0.500061Z" fill="white"/>
</mask>
<g mask="url(#mask7_252_146)">
<path d="M328.562 289.332L358.606 299.974L357.245 303.988L327.51 291.232L328.562 289.332Z" fill="#F7B094"/>
<path d="M328.562 289.332C326.377 293.416 324.037 296.484 321.718 297.097C318.209 298.018 309.735 299.609 301.184 301.104C301.28 296.522 301.433 291.69 301.625 286.84C302.449 266.479 303.964 245.964 305.019 244.046C306.743 240.845 311.461 233.885 318.899 232.294L318.919 232.39C318.919 232.39 316.349 247.574 331.687 247.574C346.297 247.574 348.157 233.368 348.29 232.007C355.807 232.85 367.33 236.608 368.921 251.716C369.247 254.707 369.706 258.541 370.301 262.894L365.565 263.545C365.565 263.545 363.647 284.827 358.721 299.916C358.683 299.934 358.643 299.954 358.606 299.974L328.562 289.332Z" fill="#FF8578"/>
<mask id="mask8_252_146" style="mask-type:luminance" maskUnits="userSpaceOnUse" x="328" y="257" width="13" height="31">
<path d="M328.251 257.523H340.248V287.737H328.251V257.523Z" fill="white"/>
</mask>
<g mask="url(#mask8_252_146)">
<path d="M328.251 286.563L340.248 257.522L331.411 287.737L328.251 286.563Z" fill="#6D4B35"/>
</g>
<path d="M348.29 232.006H341.754C341.754 232.006 332.449 242.222 326.468 242.222C320.487 242.222 323.712 232.064 323.712 232.064H320.793C312.413 232.064 305.359 238.358 304.41 246.686C304.302 247.64 304.202 248.545 304.117 249.363C303.477 255.543 328.513 260.041 328.513 260.041L341.403 259.319L349.231 244.047L350.791 237.793L348.29 232.006Z" fill="#FF8578"/>
<path d="M269.4 488.016C269.982 491.14 272.148 493.36 275.271 492.778L316.912 485.01C317.966 484.815 318.66 483.801 318.464 482.747L317.775 479.052C317.775 479.052 273.979 486.717 269.378 487.992L269.4 488.016Z" fill="#F1F2F2"/>
<path d="M281.789 477.532C282.222 477.155 282.641 476.78 283.075 476.405C283.91 475.657 284.732 474.929 285.523 474.223C285.941 473.85 286.359 473.476 286.746 473.125C287.507 472.445 288.222 471.806 288.864 471.233C289.326 470.816 289.758 470.423 290.145 470.071C290.857 469.434 291.438 468.913 291.846 468.548C292.199 468.233 292.722 468.217 293.084 468.522C294.797 469.961 300.329 473.252 310.351 467.052C310.825 466.757 311.456 466.91 311.713 467.406L317.774 479.053C317.774 479.053 273.979 486.716 269.378 487.993C270.891 487.05 276.481 482.212 281.789 477.532Z" fill="#3D3D7A"/>
<path d="M203.818 487.607C203.896 490.784 205.679 493.322 208.855 493.243L251.202 492.209C252.274 492.183 253.121 491.294 253.095 490.223L253.002 486.466C253.002 486.466 208.546 487.054 203.801 487.582L203.818 487.607Z" fill="#F1F2F2"/>
<path d="M217.719 479.231C218.208 478.927 218.68 478.625 219.17 478.322C220.113 477.716 221.04 477.13 221.933 476.56C222.405 476.257 222.878 475.956 223.316 475.67C224.175 475.118 224.984 474.604 225.708 474.14C226.232 473.802 226.719 473.482 227.157 473.198C227.961 472.681 228.618 472.259 229.079 471.964C229.478 471.708 229.997 471.778 230.307 472.136C231.767 473.83 236.705 477.959 247.587 473.435C248.102 473.22 248.699 473.472 248.876 474.004L253.002 486.466C253.002 486.466 208.546 487.055 203.801 487.582C205.444 486.89 211.734 483.006 217.719 479.231Z" fill="#3D3D7A"/>
<path d="M173.695 315.316L151.078 254.999H215.464L238.078 315.316H173.695Z" fill="#ABB5BA"/>
<path d="M242.06 315.316H238.079L215.464 254.999L219.079 255.16L239.996 309.755L242.06 315.316Z" fill="#8495A0"/>
<path d="M240.811 315.316H283.354L283.238 311.513H239.939" fill="#8495A0"/>
<path d="M422.062 495.099H411.819V326.82H422.062V495.099Z" fill="#8495A0"/>
<path d="M366.462 495.099H356.218V326.82H366.462V495.099Z" fill="#ABB5BA"/>
<path d="M188.335 495.099H178.092V326.82H188.335V495.099Z" fill="#8495A0"/>
<path d="M132.735 495.099H122.492V326.82H132.735V495.099Z" fill="#ABB5BA"/>
<path d="M432.312 327.458H112.679C109.93 327.458 107.7 325.229 107.7 322.48V320.294C107.7 317.545 109.93 315.316 112.679 315.316H432.312C435.062 315.316 437.29 317.545 437.29 320.294V322.48C437.29 325.229 435.062 327.458 432.312 327.458Z" fill="#141B56"/>
<path d="M161.829 261.339L162.931 264.276H175.756L174.655 261.339H161.829Z" fill="#8495A0"/>
<path d="M289.565 275.585L288.644 277.364L301.625 290.779V286.84L289.565 275.585Z" fill="#E8987C"/>
<path d="M554.492 504.771H36.1928V492.937H554.492V504.771Z" fill="#A5B7C6"/>
</g>
<path d="M448.143 391.585C447.692 395.45 447.35 399.326 446.928 403.194C446.539 406.776 445.328 410.733 445.292 414.283C445.244 418.762 445.892 426.592 448.599 430.292C450.668 433.118 454.105 435.585 457.665 434.86C470.881 432.165 470.26 415.148 472.32 405.158C473.415 399.837 474.172 394.356 475.508 389.096C476.412 385.538 477.628 381.784 476.623 378.069C476.054 375.973 475.267 373.862 474.393 371.859C472.479 367.47 470.306 363.6 469.354 359.028C457.046 365.982 449.769 377.655 448.143 391.585Z" fill="url(#paint6_linear_252_146)"/>
<mask id="mask9_252_146" style="mask-type:luminance" maskUnits="userSpaceOnUse" x="0" y="0" width="601" height="601">
<path d="M0.5 0.500061H600.5V600.5H0.5V0.500061Z" fill="white"/>
</mask>
<g mask="url(#mask9_252_146)">
<path d="M455.428 435.196C455.521 434.359 455.624 433.521 455.736 432.684C457.314 432.679 458.958 431.781 460.284 431.095C462.583 429.903 464.448 428.194 466.253 426.368C466.351 426.271 466.188 426.114 466.085 426.199C464.284 427.712 462.415 429.177 460.272 430.177C459.077 430.734 457.33 431.644 455.855 431.821C455.995 430.821 456.149 429.823 456.313 428.827C457.957 428.625 459.464 427.545 460.856 426.72C463.223 425.316 465.258 423.499 467.368 421.748C467.393 421.728 467.363 421.692 467.339 421.711C464.111 424.054 460.516 427.39 456.433 428.121C456.65 426.872 456.878 425.628 457.141 424.392C457.153 424.327 457.169 424.263 457.182 424.198C461.906 423.003 465.103 419.298 468.72 416.302C468.779 416.253 468.716 416.154 468.654 416.202C465.092 418.969 461.744 422.125 457.34 423.469C457.722 421.699 458.119 419.935 458.519 418.173C462.794 416.596 466.207 414.092 469.196 410.604C469.247 410.545 469.164 410.463 469.109 410.52C466.016 413.738 462.611 415.586 458.69 417.418C459.085 415.674 459.478 413.93 459.85 412.18C461.699 411.272 463.644 410.719 465.352 409.521C467.036 408.343 468.548 406.937 469.633 405.181C469.691 405.089 469.553 405.002 469.49 405.09C467.099 408.529 463.493 409.599 460.007 411.408C460.348 409.777 460.663 408.142 460.948 406.499C464.831 404.36 469.051 402.378 471.252 398.28C471.274 398.239 471.216 398.199 471.192 398.239C468.859 402.005 464.785 403.626 461.086 405.675C461.134 405.382 461.188 405.092 461.233 404.798C461.471 403.273 461.694 401.747 461.912 400.22C464.144 399.326 466.271 398.065 468.28 396.757C469.704 395.828 471.227 394.909 472.159 393.452C472.218 393.361 472.085 393.266 472.021 393.355C469.939 396.339 465.377 398.065 462.007 399.558C462.227 398.016 462.444 396.472 462.662 394.931C466.402 392.668 470.801 391.418 473.101 387.339C473.168 387.219 472.992 387.108 472.915 387.225C470.533 390.949 466.339 392.097 462.766 394.211C462.902 393.255 463.043 392.3 463.187 391.346C467.224 389.862 471.918 386.481 474.048 382.832C474.164 382.631 473.874 382.445 473.743 382.637C471.571 385.839 467.208 389.321 463.304 390.588C463.544 389.041 463.794 387.497 464.069 385.956C464.096 385.914 464.116 385.868 464.129 385.819C465.942 385.285 467.734 384.007 469.298 383.041C471.185 381.877 472.985 380.525 474.158 378.612C474.289 378.401 473.945 378.205 473.822 378.421C472.03 381.621 467.773 383.768 464.251 384.99C464.353 384.427 464.455 383.865 464.567 383.304C464.734 382.465 464.904 381.625 465.076 380.786C466.518 379.79 468.35 379.314 469.799 378.261C471.056 377.347 472.156 376.245 473.236 375.129C473.344 375.019 473.184 374.847 473.07 374.954C471.608 376.327 470.105 377.646 468.326 378.597C467.332 379.13 466.198 379.434 465.234 380.018C465.515 378.647 465.797 377.274 466.064 375.901C466.082 375.899 466.099 375.894 466.116 375.89C466.133 375.894 466.151 375.897 466.168 375.901C466.267 375.92 466.348 375.884 466.404 375.827C468.365 375.332 469.866 373.644 471.185 372.205C471.216 372.17 471.168 372.121 471.134 372.153C469.751 373.431 468.179 374.847 466.326 375.397C466.319 375.395 466.314 375.39 466.307 375.389C466.259 375.381 466.213 375.373 466.166 375.367C466.381 374.248 466.585 373.129 466.771 372.007C466.913 371.982 467.038 371.861 467.004 371.719C468.044 371.022 468.989 370.131 469.874 369.261C469.942 369.195 469.848 369.093 469.777 369.155C468.854 369.949 467.946 370.604 466.908 371.178C467.274 368.861 467.558 366.529 467.689 364.174C467.701 363.957 467.37 363.955 467.352 364.17C467.146 366.435 466.817 368.679 466.427 370.913C465.346 369.493 464.141 368.031 463.48 366.407C463.446 366.321 463.312 366.356 463.342 366.447C463.664 367.456 464.222 368.339 464.774 369.236C465.269 370.039 465.664 370.973 466.295 371.687C466.076 372.885 465.841 374.08 465.594 375.274C464.279 375.064 463.072 374.815 461.987 373.862C460.656 372.697 459.901 371.112 459.769 369.354C459.752 369.138 459.412 369.139 459.432 369.355C459.582 370.989 460.232 372.527 461.351 373.746C462.527 375.027 463.907 375.437 465.492 375.765C465.203 377.144 464.905 378.522 464.603 379.898C463.408 379.182 462.299 378.244 461.221 377.387C459.484 376.002 458.456 374.335 456.949 372.775C456.798 372.62 456.552 372.845 456.701 373.004C458.113 374.507 459.07 376.134 460.678 377.484C461.836 378.456 463.112 379.674 464.495 380.394C464.478 380.467 464.461 380.539 464.447 380.612C464.431 380.625 464.414 380.636 464.401 380.65C464.294 380.754 464.305 380.871 464.37 380.959C464.08 382.277 463.79 383.595 463.511 384.918C463.494 384.999 463.48 385.082 463.462 385.166C460.388 383.758 455.795 381.313 455.387 377.747C455.348 377.408 454.842 377.502 454.92 377.849C455.83 381.885 460.265 383.673 463.321 385.874C463.02 387.369 462.744 388.867 462.491 390.369C460.504 389.685 458.616 388.84 456.95 387.516C455.434 386.31 453.289 384.855 452.605 382.987C452.585 382.928 452.498 382.968 452.518 383.024C453.15 384.882 455.074 386.159 456.474 387.424C458.251 389.033 460.068 390.397 462.353 391.04C462.336 391.106 462.331 391.173 462.348 391.241C462.191 392.193 462.04 393.146 461.894 394.101C458.16 393.815 452.936 390.979 451.028 388.155C451.02 388.142 451.002 388.157 451.009 388.17C452.31 390.324 454.278 391.584 456.497 392.676C458.153 393.493 459.943 394.459 461.816 394.598C461.55 396.365 461.29 398.132 461.027 399.9C459.406 399.296 457.691 399.007 456.088 398.366C453.704 397.412 451.885 395.699 450.482 393.593C450.398 393.465 450.186 393.572 450.269 393.705C452.854 397.814 456.572 399.02 460.928 400.558C460.71 402.008 460.483 403.457 460.244 404.904C456.679 404.221 452.069 402.044 450.265 398.948C450.133 398.721 449.771 398.91 449.903 399.139C451.043 401.123 453.005 402.378 455.008 403.389C456.451 404.118 458.437 405.325 460.154 405.455C460.147 405.501 460.14 405.549 460.132 405.596C459.779 407.678 459.367 409.75 458.923 411.814C454.942 410.814 452.366 407.864 449.472 405.103C449.272 404.911 448.956 405.204 449.156 405.399C452.105 408.302 454.696 411.346 458.792 412.42C458.424 414.099 458.034 415.774 457.628 417.446C454.237 416.498 450.88 414.091 448.686 411.326C448.53 411.129 448.256 411.396 448.404 411.59C450.685 414.59 453.972 416.854 457.471 418.094C457.032 419.888 456.576 421.677 456.115 423.466C452.632 422.936 449.947 420.754 447.802 417.997C447.751 417.933 447.64 418.017 447.686 418.083C449.593 420.736 452.477 423.8 455.947 424.122C455.801 424.692 455.652 425.263 455.504 425.833C455.416 426.176 455.323 426.525 455.228 426.878C452.602 426.105 450.162 425.162 447.995 423.391C447.934 423.34 447.864 423.435 447.92 423.487C449.982 425.342 452.449 426.592 455.086 427.404C454.793 428.478 454.484 429.582 454.178 430.707C453.527 430.404 452.896 430.071 452.184 429.858C450.877 429.466 450.03 428.637 448.894 427.954C448.788 427.891 448.67 428.038 448.776 428.107C449.774 428.758 450.476 429.597 451.615 430.026C452.46 430.345 453.254 430.749 454.07 431.112C452.873 435.574 451.813 440.32 452.388 444.604C452.515 445.555 454.11 445.807 454.356 444.795C455.112 441.69 455.074 438.372 455.428 435.196Z" fill="#747DED"/>
</g>
<path d="M402.848 400.197C404.07 403.892 405.396 407.55 406.647 411.235C407.805 414.644 408.378 418.743 409.843 421.978C411.69 426.058 415.582 432.884 419.598 435.094C422.666 436.784 426.825 437.571 429.745 435.41C440.588 427.388 432.844 412.225 430.494 402.297C429.243 397.011 427.614 391.723 426.606 386.391C425.924 382.784 425.443 378.868 422.962 375.926C421.562 374.264 419.955 372.681 418.322 371.235C414.733 368.064 411.13 365.472 408.337 361.728C400.113 373.228 398.443 386.882 402.848 400.197Z" fill="url(#paint7_linear_252_146)"/>
<mask id="mask10_252_146" style="mask-type:luminance" maskUnits="userSpaceOnUse" x="0" y="0" width="601" height="601">
<path d="M0.5 0.500061H600.5V600.5H0.5V0.500061Z" fill="white"/>
</mask>
<g mask="url(#mask10_252_146)">
<path d="M427.859 436.66C427.589 435.861 427.331 435.057 427.077 434.251C428.507 433.582 429.619 432.074 430.531 430.891C432.112 428.84 433.081 426.505 433.947 424.085C433.993 423.957 433.78 423.884 433.723 424.005C432.729 426.136 431.654 428.253 430.132 430.065C429.284 431.074 428.084 432.635 426.823 433.419C426.526 432.453 426.244 431.485 425.974 430.511C427.379 429.635 428.289 428.02 429.202 426.683C430.755 424.411 431.835 421.905 433.007 419.429C433.022 419.401 432.98 419.379 432.965 419.407C431.029 422.893 429.177 427.436 425.785 429.82C425.453 428.597 425.135 427.372 424.851 426.141C424.835 426.077 424.822 426.013 424.808 425.948C428.585 422.871 429.92 418.162 431.935 413.92C431.968 413.851 431.869 413.786 431.833 413.857C429.771 417.868 428.069 422.144 424.642 425.219C424.241 423.454 423.857 421.688 423.477 419.923C426.687 416.687 428.725 412.977 429.961 408.553C429.982 408.479 429.873 408.439 429.847 408.513C428.402 412.736 426.094 415.849 423.313 419.165C422.935 417.417 422.554 415.671 422.152 413.929C423.446 412.323 424.976 411.001 426.02 409.196C427.049 407.416 427.827 405.502 428.068 403.453C428.081 403.345 427.921 403.324 427.901 403.431C427.185 407.558 424.366 410.049 421.971 413.159C421.589 411.538 421.186 409.923 420.751 408.313C423.369 404.735 426.358 401.157 426.623 396.513C426.627 396.467 426.557 396.455 426.551 396.502C426.028 400.899 423.017 404.089 420.53 407.509C420.449 407.223 420.375 406.936 420.291 406.651C419.865 405.169 419.422 403.69 418.976 402.214C420.622 400.461 422.018 398.421 423.286 396.387C424.186 394.945 425.179 393.467 425.409 391.753C425.425 391.645 425.263 391.616 425.242 391.724C424.615 395.308 421.207 398.797 418.783 401.573C418.33 400.083 417.875 398.593 417.424 397.102C419.858 393.473 423.317 390.483 423.683 385.815C423.693 385.677 423.485 385.651 423.467 385.789C422.879 390.171 419.56 392.983 417.213 396.406C416.935 395.482 416.657 394.557 416.385 393.632C419.419 390.583 422.248 385.535 422.637 381.329C422.66 381.097 422.317 381.05 422.281 381.281C421.663 385.1 419.177 390.095 416.174 392.893C415.736 391.39 415.311 389.885 414.91 388.372C414.917 388.322 414.916 388.273 414.907 388.222C416.325 386.974 417.41 385.058 418.421 383.523C419.639 381.671 420.701 379.685 420.958 377.456C420.986 377.21 420.592 377.177 420.574 377.426C420.298 381.085 417.345 384.825 414.667 387.419C414.524 386.866 414.379 386.313 414.242 385.757C414.039 384.927 413.84 384.093 413.642 383.26C414.53 381.748 415.988 380.543 416.857 378.979C417.613 377.618 418.144 376.155 418.651 374.687C418.701 374.542 418.485 374.453 418.427 374.599C417.682 376.462 416.876 378.29 415.665 379.905C414.987 380.807 414.087 381.561 413.461 382.497C413.137 381.135 412.813 379.773 412.477 378.415C412.49 378.405 412.503 378.393 412.519 378.383C412.534 378.379 412.552 378.375 412.569 378.37C412.669 378.345 412.725 378.28 412.753 378.203C414.322 376.928 414.97 374.763 415.557 372.902C415.571 372.857 415.508 372.835 415.49 372.878C414.776 374.62 413.948 376.567 412.501 377.846C412.493 377.847 412.487 377.846 412.48 377.847C412.433 377.861 412.388 377.875 412.342 377.887C412.066 376.784 411.778 375.682 411.475 374.585C411.591 374.503 411.652 374.341 411.562 374.227C412.21 373.155 412.691 371.95 413.128 370.785C413.161 370.699 413.033 370.646 412.994 370.731C412.493 371.84 411.945 372.818 411.248 373.778C410.601 371.521 409.876 369.287 408.999 367.099C408.919 366.896 408.619 367.034 408.691 367.235C409.461 369.377 410.11 371.549 410.699 373.738C409.119 372.909 407.41 372.092 406.126 370.898C406.059 370.835 405.952 370.923 406.017 370.993C406.735 371.771 407.614 372.335 408.494 372.916C409.281 373.435 410.035 374.116 410.905 374.497C411.214 375.676 411.505 376.859 411.784 378.045C410.504 378.409 409.305 378.692 407.919 378.286C406.221 377.791 404.866 376.673 404.006 375.135C403.899 374.947 403.591 375.091 403.7 375.279C404.527 376.697 405.765 377.818 407.293 378.451C408.901 379.117 410.325 378.904 411.899 378.533C412.22 379.905 412.532 381.279 412.838 382.655C411.452 382.51 410.05 382.13 408.712 381.806C406.552 381.284 404.919 380.205 402.892 379.429C402.689 379.351 402.561 379.659 402.764 379.739C404.68 380.506 406.233 381.578 408.261 382.124C409.721 382.515 411.393 383.081 412.948 383.15C412.964 383.223 412.981 383.295 412.996 383.368C412.989 383.386 412.979 383.403 412.972 383.423C412.919 383.561 412.981 383.663 413.074 383.715C413.367 385.033 413.661 386.35 413.967 387.665C413.985 387.747 414.008 387.83 414.027 387.911C410.645 387.934 405.449 387.656 403.576 384.595C403.396 384.303 402.979 384.602 403.195 384.885C405.723 388.16 410.499 387.908 414.197 388.613C414.556 390.095 414.937 391.57 415.341 393.039C413.253 393.257 411.184 393.289 409.114 392.789C407.231 392.337 404.673 391.924 403.265 390.519C403.222 390.475 403.159 390.545 403.201 390.59C404.558 392.007 406.84 392.351 408.645 392.909C410.935 393.617 413.158 394.087 415.501 393.705C415.513 393.772 415.538 393.836 415.581 393.89C415.84 394.82 416.105 395.747 416.377 396.675C412.87 397.989 406.937 397.624 404.017 395.87C404.003 395.861 403.993 395.883 404.006 395.89C406.094 397.294 408.41 397.606 410.882 397.661C412.729 397.702 414.758 397.822 416.517 397.157C417.019 398.872 417.531 400.585 418.036 402.297C416.314 402.435 414.635 402.896 412.912 402.991C410.349 403.132 407.978 402.346 405.817 401.03C405.685 400.949 405.538 401.135 405.67 401.222C409.748 403.856 413.627 403.379 418.226 402.935C418.64 404.342 419.047 405.751 419.439 407.163C415.919 408.049 410.822 408.022 407.881 405.976C407.663 405.826 407.416 406.15 407.632 406.303C409.503 407.62 411.812 407.93 414.053 408.001C415.669 408.052 417.98 408.309 419.59 407.701C419.603 407.746 419.618 407.793 419.631 407.839C420.189 409.876 420.691 411.928 421.159 413.986C417.127 414.76 413.547 413.173 409.759 411.89C409.495 411.801 409.334 412.199 409.598 412.293C413.495 413.68 417.129 415.347 421.295 414.59C421.672 416.269 422.025 417.952 422.362 419.638C418.887 420.209 414.829 419.445 411.673 417.865C411.448 417.752 411.313 418.109 411.53 418.223C414.862 419.98 418.797 420.645 422.493 420.292C422.852 422.104 423.194 423.92 423.532 425.735C420.148 426.725 416.794 425.881 413.685 424.286C413.613 424.249 413.547 424.372 413.619 424.413C416.467 426.013 420.374 427.573 423.655 426.399C423.763 426.98 423.869 427.558 423.977 428.138C424.041 428.487 424.105 428.843 424.167 429.202C421.459 429.61 418.85 429.785 416.137 429.094C416.061 429.075 416.037 429.189 416.111 429.212C418.762 430.024 421.527 430.117 424.259 429.739C424.447 430.835 424.634 431.968 424.832 433.117C424.113 433.115 423.4 433.082 422.665 433.187C421.315 433.385 420.197 432.991 418.877 432.851C418.756 432.838 418.712 433.022 418.835 433.04C420.016 433.209 421.006 433.673 422.222 433.582C423.121 433.514 424.012 433.545 424.904 433.529C425.702 438.081 426.743 442.829 429.074 446.471C429.59 447.279 431.141 446.835 430.937 445.814C430.313 442.679 428.878 439.687 427.859 436.66Z" fill="#747DED"/>
</g>
<path d="M420.278 385.648C420.907 390.423 421.672 395.178 422.34 399.946C422.958 404.36 422.706 409.477 423.736 413.748C425.037 419.136 428.19 428.335 432.559 431.953C435.9 434.716 440.77 436.636 444.822 434.685C459.861 427.444 453.958 407.215 453.4 394.604C453.103 387.889 452.348 381.082 452.355 374.365C452.361 369.824 452.684 364.951 450.35 360.799C449.031 358.455 447.447 356.161 445.792 354.025C442.165 349.336 438.385 345.351 435.856 340.154C423.196 352.228 418.005 368.443 420.278 385.648Z" fill="url(#paint8_linear_252_146)"/>
<mask id="mask11_252_146" style="mask-type:luminance" maskUnits="userSpaceOnUse" x="0" y="0" width="601" height="601">
<path d="M0.5 0.500061H600.5V600.5H0.5V0.500061Z" fill="white"/>
</mask>
<g mask="url(#mask11_252_146)">
<path d="M442.241 435.767C442.099 434.734 441.968 433.696 441.847 432.658C443.742 432.176 445.442 430.6 446.823 429.374C449.221 427.246 450.939 424.632 452.553 421.892C452.639 421.745 452.396 421.606 452.299 421.742C450.596 424.102 448.8 426.428 446.531 428.277C445.266 429.306 443.445 430.929 441.731 431.588C441.594 430.344 441.475 429.101 441.372 427.856C443.283 427.116 444.764 425.363 446.184 423.95C448.597 421.547 450.489 418.75 452.489 416.012C452.513 415.98 452.466 415.944 452.442 415.974C449.28 419.765 445.977 424.858 441.302 426.972C441.182 425.41 441.08 423.846 441.019 422.284C441.015 422.201 441.014 422.121 441.012 422.039C446.317 419.172 449.028 413.757 452.461 409.067C452.516 408.992 452.411 408.89 452.351 408.966C448.915 413.366 445.856 418.169 440.979 421.115C440.901 418.877 440.843 416.64 440.789 414.405C445.44 411.218 448.776 407.177 451.303 402.086C451.346 401.999 451.223 401.926 451.173 402.01C448.44 406.81 444.914 410.06 440.765 413.446C440.711 411.234 440.652 409.023 440.567 406.811C442.511 405.16 444.675 403.906 446.364 401.954C448.027 400.029 449.415 397.882 450.183 395.446C450.224 395.319 450.032 395.255 449.985 395.381C448.159 400.232 444.156 402.609 440.522 405.836C440.436 403.778 440.319 401.718 440.162 399.66C444.173 395.918 448.635 392.26 450.033 386.675C450.048 386.62 449.966 386.59 449.949 386.645C448.293 391.87 443.895 395.05 440.078 398.633C440.048 398.266 440.023 397.9 439.989 397.534C439.813 395.633 439.616 393.734 439.416 391.835C441.823 390.086 443.993 387.928 446.006 385.749C447.434 384.204 448.982 382.638 449.66 380.607C449.702 380.48 449.513 380.406 449.466 380.534C447.87 384.744 442.92 388.198 439.329 391.011C439.124 389.093 438.917 387.178 438.714 385.262C442.513 381.413 447.411 378.579 448.935 372.989C448.98 372.822 448.734 372.742 448.679 372.908C446.949 378.096 442.265 380.747 438.617 384.366C438.493 383.178 438.371 381.99 438.255 380.8C442.649 377.796 447.257 372.317 448.705 367.293C448.784 367.017 448.379 366.881 448.279 367.151C446.646 371.652 442.466 377.15 438.167 379.854C437.984 377.927 437.815 375.998 437.678 374.066C437.7 374.006 437.709 373.946 437.709 373.883C439.722 372.693 441.485 370.617 443.069 368.985C444.98 367.016 446.73 364.846 447.559 362.195C447.65 361.902 447.177 361.773 447.098 362.069C445.916 366.453 441.462 370.317 437.604 372.852C437.558 372.146 437.51 371.441 437.472 370.733C437.417 369.676 437.367 368.616 437.319 367.558C438.749 365.926 440.802 364.798 442.22 363.096C443.454 361.618 444.439 359.963 445.395 358.296C445.49 358.132 445.248 357.975 445.143 358.137C443.807 360.228 442.403 362.265 440.557 363.947C439.524 364.888 438.255 365.596 437.276 366.588C437.199 364.857 437.119 363.126 437.024 361.397C437.045 361.389 437.064 361.378 437.083 361.368C437.106 361.367 437.126 361.366 437.149 361.365C437.274 361.358 437.359 361.292 437.411 361.205C439.614 360.017 440.903 357.536 442.047 355.409C442.074 355.359 442.003 355.314 441.971 355.364C440.699 357.317 439.243 359.492 437.186 360.712C437.177 360.712 437.171 360.708 437.161 360.71C437.101 360.714 437.045 360.72 436.985 360.725C436.904 359.319 436.809 357.914 436.693 356.511C436.856 356.438 436.967 356.254 436.884 356.094C437.919 354.942 438.785 353.589 439.584 352.275C439.644 352.176 439.501 352.082 439.434 352.176C438.569 353.41 437.675 354.471 436.607 355.475C436.343 352.583 435.977 349.7 435.417 346.836C435.366 346.571 434.97 346.668 435.013 346.931C435.453 349.713 435.738 352.504 435.948 355.301C434.219 353.927 432.331 352.539 431.045 350.789C430.977 350.698 430.829 350.78 430.891 350.879C431.585 351.992 432.522 352.882 433.457 353.792C434.293 354.604 435.051 355.606 436.022 356.271C436.124 357.776 436.205 359.282 436.271 360.789C434.628 360.934 433.106 361 431.514 360.188C429.565 359.192 428.177 357.519 427.487 355.449C427.401 355.196 426.992 355.3 427.082 355.553C427.758 357.47 429.005 359.118 430.716 360.242C432.516 361.422 434.297 361.494 436.297 361.408C436.368 363.149 436.429 364.892 436.483 366.636C434.832 366.14 433.215 365.351 431.665 364.648C429.159 363.513 427.422 361.826 425.139 360.411C424.911 360.269 424.683 360.615 424.911 360.76C427.063 362.135 428.702 363.797 431.042 364.93C432.726 365.745 434.628 366.82 436.503 367.264C436.506 367.355 436.508 367.448 436.512 367.54C436.497 367.56 436.481 367.58 436.467 367.6C436.371 367.756 436.422 367.895 436.525 367.979C436.575 369.648 436.628 371.32 436.695 372.989C436.7 373.092 436.707 373.197 436.712 373.301C432.596 372.545 426.343 371.004 424.773 366.849C424.623 366.454 424.045 366.72 424.244 367.113C426.559 371.681 432.423 372.482 436.758 374.195C436.849 376.079 436.97 377.961 437.123 379.841C434.533 379.623 432.012 379.181 429.611 378.095C427.424 377.109 424.411 376.014 423.025 373.98C422.982 373.916 422.889 373.989 422.93 374.051C424.253 376.089 426.948 377.037 429.012 378.131C431.631 379.522 434.226 380.608 437.162 380.687C437.161 380.771 437.177 380.854 437.216 380.93C437.316 382.12 437.424 383.309 437.538 384.498C432.972 385.287 425.845 383.469 422.7 380.658C422.685 380.645 422.667 380.668 422.681 380.682C424.896 382.872 427.638 383.788 430.629 384.426C432.866 384.903 435.307 385.52 437.598 385.118C437.811 387.318 438.036 389.519 438.257 391.72C436.129 391.487 433.983 391.659 431.865 391.376C428.717 390.953 426.015 389.45 423.692 387.347C423.553 387.221 423.331 387.414 423.47 387.548C427.818 391.694 432.644 392.014 438.337 392.54C438.516 394.344 438.684 396.152 438.835 397.96C434.351 398.222 428.159 397.008 425.057 393.84C424.829 393.608 424.452 393.944 424.679 394.18C426.649 396.214 429.384 397.125 432.093 397.731C434.045 398.168 436.794 399.014 438.894 398.648C438.899 398.706 438.905 398.766 438.911 398.826C439.117 401.432 439.253 404.042 439.345 406.653C434.264 406.659 430.28 403.899 425.97 401.464C425.671 401.295 425.382 401.742 425.682 401.918C430.1 404.505 434.13 407.373 439.371 407.418C439.44 409.545 439.479 411.674 439.499 413.802C435.143 413.692 430.383 411.824 426.914 409.17C426.667 408.983 426.42 409.385 426.657 409.574C430.303 412.481 434.933 414.201 439.508 414.628C439.523 416.914 439.519 419.199 439.509 421.485C435.167 421.904 431.286 420.1 427.874 417.443C427.795 417.382 427.686 417.516 427.764 417.582C430.855 420.188 435.245 422.988 439.506 422.321C439.502 423.05 439.499 423.78 439.494 424.509C439.491 424.949 439.485 425.396 439.478 425.847C436.092 425.716 432.879 425.324 429.741 423.856C429.654 423.815 429.6 423.948 429.683 423.993C432.717 425.594 436.058 426.346 439.466 426.521C439.441 427.898 439.406 429.317 439.38 430.758C438.507 430.593 437.648 430.385 436.729 430.344C435.042 430.271 433.776 429.534 432.204 429.058C432.06 429.015 431.964 429.227 432.11 429.278C433.506 429.756 434.601 430.55 436.099 430.72C437.209 430.845 438.285 431.091 439.373 431.277C439.289 436.996 439.458 443.009 441.446 447.977C441.887 449.079 443.875 448.896 443.865 447.609C443.831 443.654 442.777 439.684 442.241 435.767Z" fill="#747DED"/>
<path d="M461.702 440.492L461.145 450.744L460.274 466.707L458.846 492.936H423.336L421.909 466.707L421.036 450.744L420.48 440.492H461.702Z" fill="#95A8B5"/>
<path d="M461.145 450.744L461.03 452.799L460.917 454.927L460.273 466.707H421.909L421.266 454.927L421.152 452.799L421.036 450.744H461.145Z" fill="#A5B7C6"/>
<path d="M461.03 452.799L460.916 454.927H421.265L421.152 452.799H461.03Z" fill="#95A8B5"/>
</g>
<defs>
<radialGradient id="paint0_radial_252_146" cx="0" cy="0" r="1" gradientUnits="userSpaceOnUse" gradientTransform="translate(333.524 231.354) scale(15.5106 15.5106)">
<stop stop-color="#FFC8AF"/>
<stop offset="1" stop-color="#FFBB9C"/>
</radialGradient>
<radialGradient id="paint1_radial_252_146" cx="0" cy="0" r="1" gradientUnits="userSpaceOnUse" gradientTransform="translate(324.55 203.279) rotate(-12.1528) scale(24.4532 24.4532)">
<stop stop-color="#FFC8AF"/>
<stop offset="1" stop-color="#FFBB9C"/>
</radialGradient>
<radialGradient id="paint2_radial_252_146" cx="0" cy="0" r="1" gradientUnits="userSpaceOnUse" gradientTransform="translate(300.455 465.557) scale(9.75103 9.75104)">
<stop stop-color="#FFC8AF"/>
<stop offset="1" stop-color="#FFBB9C"/>
</radialGradient>
<radialGradient id="paint3_radial_252_146" cx="0" cy="0" r="1" gradientUnits="userSpaceOnUse" gradientTransform="translate(238.698 468.003) scale(8.88185)">
<stop stop-color="#FFC8AF"/>
<stop offset="1" stop-color="#FFBB9C"/>
</radialGradient>
<radialGradient id="paint4_radial_252_146" cx="0" cy="0" r="1" gradientUnits="userSpaceOnUse" gradientTransform="translate(292.773 301.337) rotate(9.12102) scale(49.7328 49.7328)">
<stop stop-color="#FFC8AF"/>
<stop offset="1" stop-color="#FFBB9C"/>
</radialGradient>
<radialGradient id="paint5_radial_252_146" cx="0" cy="0" r="1" gradientUnits="userSpaceOnUse" gradientTransform="translate(292.773 301.337) rotate(9.12103) scale(49.7328 49.7329)">
<stop stop-color="#FFC8AF"/>
<stop offset="1" stop-color="#FFBB9C"/>
</radialGradient>
<linearGradient id="paint6_linear_252_146" x1="461.143" y1="359.028" x2="461.146" y2="434.988" gradientUnits="userSpaceOnUse">
<stop stop-color="#606BF1"/>
<stop offset="1" stop-color="#58479F"/>
</linearGradient>
<linearGradient id="paint7_linear_252_146" x1="400.892" y1="365.195" x2="432.956" y2="434.057" gradientUnits="userSpaceOnUse">
<stop stop-color="#606BF1"/>
<stop offset="1" stop-color="#58479F"/>
</linearGradient>
<linearGradient id="paint8_linear_252_146" x1="426.005" y1="342.644" x2="449.038" y2="433.784" gradientUnits="userSpaceOnUse">
<stop stop-color="#606BF1"/>
<stop offset="1" stop-color="#58479F"/>
</linearGradient>
</defs>
</svg>
