<svg width="36" height="37" viewBox="0 0 36 37" fill="none" xmlns="http://www.w3.org/2000/svg">
<g clip-path="url(#clip0_222_298)">
<path id="Vector" d="M33.1875 0.5H2.8125C1.25859 0.5 0 1.75859 0 3.3125V33.6875C0 35.2414 1.25859 36.5 2.8125 36.5H33.1875C34.7414 36.5 36 35.2414 36 33.6875V3.3125C36 1.75859 34.7414 0.5 33.1875 0.5ZM12.9656 26.0305H9.45703V14.8016H12.9656V26.0305ZM11.1164 13.3953H11.0883C9.81563 13.3953 8.99297 12.5375 8.99297 11.4477C8.99297 10.3367 9.84375 9.5 11.1375 9.5C12.4312 9.5 13.2258 10.3367 13.2539 11.4477C13.2609 12.5305 12.4383 13.3953 11.1164 13.3953ZM27 26.0305H23.0203V20.2227C23.0203 18.7039 22.4016 17.6633 21.0305 17.6633C19.9828 17.6633 19.3992 18.3664 19.132 19.0414C19.0336 19.2805 19.0477 19.618 19.0477 19.9625V26.0305H15.1031C15.1031 26.0305 15.1523 15.7367 15.1031 14.8016H19.0477V16.5664C19.2797 15.793 20.5383 14.6961 22.5492 14.6961C25.0453 14.6961 27 16.3133 27 19.7867V26.0305Z" fill="#F7F7F7"/>
</g>
<defs>
<clipPath id="clip0_222_298">
<rect y="0.5" width="36" height="36" rx="4" fill="#F7F7F7"/>
</clipPath>
</defs>
</svg>
