<svg width="36" height="37" viewBox="0 0 36 37" fill="none" xmlns="http://www.w3.org/2000/svg">
<g clip-path="url(#clip0_222_300)">
<g id="Group">
<path id="Vector" d="M0 0.5V36.5H36V0.5H0ZM27.225 20.075C27.1266 20.8766 26.9578 21.6992 26.6695 22.4516C25.8258 24.6102 24.1383 25.7984 21.9023 26.157C20.6227 26.3609 19.3078 26.368 17.8875 26.4734C16.6148 26.3609 15.2156 26.3469 13.8586 26.1078C11.2289 25.6438 9.44297 23.8016 8.92266 21.1648C8.65547 19.8219 8.57812 18.4719 8.99297 17.1359C9.21094 16.4469 9.56953 15.8352 10.0336 15.2797C10.0969 15.2094 10.1531 15.1039 10.1461 15.0125C10.0688 13.8031 10.2094 12.6078 10.568 11.4547C10.8633 10.4914 10.6453 10.5477 11.7141 10.8289C13.0008 11.1664 14.1258 11.8625 15.2297 12.5867C15.3563 12.6711 15.5531 12.7063 15.7078 12.6781C17.2687 12.4391 18.8227 12.425 20.3836 12.6992C20.4961 12.7203 20.6438 12.6781 20.7492 12.6148C21.6984 11.9961 22.6758 11.4406 23.7445 11.0539C24.1313 10.9133 24.5391 10.8219 24.9328 10.7023C25.1086 10.6531 25.1859 10.7164 25.2492 10.8852C25.7273 12.2211 25.9242 13.5922 25.8539 15.0055C25.8469 15.0828 25.8891 15.1883 25.9383 15.2516C27.1406 16.6437 27.443 18.3031 27.225 20.075Z" fill="#F7F7F7"/>
<path id="Vector_2" d="M22.507 18.3172C21.9023 18.2117 21.2695 18.2258 20.6508 18.2609C19.2445 18.3383 17.8383 18.4719 16.432 18.3453C15.7641 18.282 15.0891 18.2188 14.4141 18.2328C13.1906 18.2539 12.1641 18.6547 11.5594 19.8219C11.257 20.3984 11.1867 21.0172 11.2078 21.657C11.257 23.457 12.0375 24.4836 13.7531 24.9969C15.1312 25.4047 16.5445 25.4609 17.9648 25.4328C18.4922 25.4328 19.0195 25.4609 19.5469 25.4258C20.6367 25.3625 21.7055 25.2008 22.7391 24.8211C23.8078 24.4273 24.4476 23.675 24.6797 22.5852C24.7711 22.1633 24.8133 21.7203 24.8062 21.2914C24.7922 19.8359 23.8078 18.5352 22.507 18.3172ZM15.5883 23.0773C15.1312 23.5766 14.4703 23.5836 13.9992 23.0984C13.6547 22.7469 13.4578 22.2055 13.4578 21.5305C13.4719 21.0734 13.6055 20.5742 13.9992 20.1734C14.4703 19.6883 15.1312 19.6953 15.5883 20.1875C16.2773 20.9328 16.2773 22.332 15.5883 23.0773ZM21.9797 23.1125C21.5508 23.5555 20.932 23.5695 20.475 23.1617C19.6875 22.4445 19.6875 20.8484 20.475 20.1242C20.925 19.7094 21.5437 19.7234 21.9797 20.1664C22.3805 20.5742 22.5141 21.0875 22.5351 21.6359C22.5141 22.1914 22.3734 22.6977 21.9797 23.1125Z" fill="#F7F7F7"/>
</g>
</g>
<defs>
<clipPath id="clip0_222_300">
<rect y="0.5" width="36" height="36" rx="4" fill="#F7F7F7"/>
</clipPath>
</defs>
</svg>
