<svg width="36" height="37" viewBox="0 0 36 37" fill="none" xmlns="http://www.w3.org/2000/svg">
<g id="home__contact-email">
<rect y="0.5" width="36" height="36" rx="4" fill="#F7F7F7"/>
<g id="Group">
<path id="Vector" d="M9.12816 25.6011C8.8515 25.6011 8.5928 25.5284 8.37183 25.4006L14.8897 19.7202L15.4981 20.2496C16.0073 20.6921 16.6447 20.9162 17.2761 20.9162C17.9106 20.9162 18.548 20.6921 19.0572 20.2496L19.6653 19.7202L21.8719 21.6439C22.1214 21.2233 22.4315 20.8445 22.7912 20.5171L20.7712 18.7571L26.952 13.3648V19.3218C27.5267 19.4266 28.0656 19.6321 28.5522 19.9195V12.6285C28.5522 12.4221 28.532 12.2178 28.4942 12.0201C28.3923 11.508 28.1654 11.0394 27.8484 10.6523C27.7814 10.5679 27.7115 10.4924 27.6356 10.4169C27.0741 9.85222 26.2854 9.5 25.4239 9.5H9.12816C8.26673 9.5 7.48116 9.85222 6.9165 10.4169C6.84094 10.4924 6.77109 10.5679 6.70406 10.6523C6.38681 11.0394 6.15989 11.508 6.06108 12.0201C6.02016 12.2178 6 12.4221 6 12.6285V24.0736C6 24.5127 6.09314 24.9348 6.25903 25.3159C6.41292 25.6798 6.64017 26.009 6.9165 26.285C6.98639 26.3548 7.05623 26.419 7.1318 26.483C7.67316 26.9311 8.37183 27.2018 9.12816 27.2018H22.2757C21.8952 26.7316 21.599 26.1909 21.4126 25.601H9.12816V25.6011ZM8.0483 11.5487C8.32777 11.2695 8.70328 11.1005 9.12816 11.1005H25.424C25.8489 11.1005 26.2275 11.2695 26.5039 11.5487C26.553 11.5984 26.5996 11.6538 26.6408 11.7089L18.0997 19.1527C17.864 19.3592 17.5729 19.4612 17.2761 19.4612C16.9822 19.4612 16.6913 19.3592 16.4524 19.1527L7.91484 11.7058C7.95262 11.6507 7.99922 11.5984 8.0483 11.5487ZM7.60013 24.0737V13.3619L13.7812 18.754L7.60327 24.1404C7.60012 24.1199 7.60013 24.097 7.60013 24.0737Z" fill="#100C0C"/>
<path id="Vector_2" d="M26.0759 20.2059C23.9086 20.2059 22.1523 21.9627 22.1523 24.13C22.1523 26.297 23.9086 28.0538 26.0759 28.0538C28.2435 28.0538 30 26.297 30 24.13C30 21.9627 28.2435 20.2059 26.0759 20.2059ZM26.6827 26.0067H25.7297V23.362H25.7183L25.0272 23.6884L24.883 22.8531L25.8512 22.4105H26.6827L26.6827 26.0067Z" fill="#100C0C"/>
</g>
</g>
</svg>
